<?xml version="1.0" encoding="utf-8"?>
<svg version="1.1" xmlns:xlink="http://www.w3.org/1999/xlink" width="462px" height="10px" preserveAspectRatio="xMinYMid meet" viewBox="180 583  462 8" xmlns="http://www.w3.org/2000/svg">
  <path d="M 637 746  L 637 592  A 5 5 0 0 0 632 587 L 360 587  A 3 3 0 0 0 357 584 A 3 3 0 0 0 354 587 L 232 587  A 3 3 0 0 0 229 584 A 3 3 0 0 0 226 587 L 182 587  " stroke-width="2" stroke="#ff6a00" fill="none" stroke-opacity="0.658823529411765" />
  <path d="M 187.107106781187 591.292893218813  L 182.814213562373 587  L 187.107106781187 582.707106781187  L 185.692893218813 581.292893218813  L 180.692893218813 586.292893218813  L 179.985786437627 587  L 180.692893218813 587.707106781187  L 185.692893218813 592.707106781187  L 187.107106781187 591.292893218813  Z " fill-rule="nonzero" fill="#ff6a00" stroke="none" fill-opacity="0.658823529411765" />
</svg>