<?xml version="1.0" encoding="utf-8"?>
<svg version="1.1" xmlns:xlink="http://www.w3.org/1999/xlink" width="20px" height="20px" preserveAspectRatio="xMinYMid meet" viewBox="1189 509  20 18" xmlns="http://www.w3.org/2000/svg">
  <path d="M 424 701  L 424 556  A 3 3 0 0 0 427 553 A 3 3 0 0 0 424 550 L 424 538  A 3 3 0 0 0 427 535 A 3 3 0 0 0 424 532 L 424 523  A 5 5 0 0 1 429 518 L 1199 518  " stroke-width="2" stroke="#ff6a00" fill="none" stroke-opacity="0.658823529411765" />
  <path d="M 1193.89289321881 513.707106781187  L 1198.18578643763 518  L 1193.89289321881 522.292893218813  L 1195.30710678119 523.707106781187  L 1200.30710678119 518.707106781187  L 1201.01421356237 518  L 1200.30710678119 517.292893218813  L 1195.30710678119 512.292893218813  L 1193.89289321881 513.707106781187  Z " fill-rule="nonzero" fill="#ff6a00" stroke="none" fill-opacity="0.658823529411765" />
</svg>